<?xml version="1.0" encoding="utf-8"?>
<!-- Generator: Adobe Illustrator 19.0.0, SVG Export Plug-In . SVG Version: 6.00 Build 0)  -->
<svg version="1.1" id="レイヤー_1" xmlns="http://www.w3.org/2000/svg" xmlns:xlink="http://www.w3.org/1999/xlink" x="0px"
	 y="0px" viewBox="-75 -6 448 512" style="enable-background:new -75 -6 448 512;" xml:space="preserve">
<style type="text/css">
	.st0{fill:#FFFFFF;}
</style>
<path class="st0" d="M197.1,198.2v71.1c0,1.8-1.4,3.2-3.2,3.2h-11.4c-1.1,0-2.1-0.6-2.6-1.3l-32.6-44v42.2c0,1.8-1.4,3.2-3.2,3.2
	h-11.4c-1.8,0-3.2-1.4-3.2-3.2v-71.1c0-1.8,1.4-3.2,3.2-3.2H144c1,0,2.1,0.5,2.6,1.4l32.6,44v-42.2c0-1.8,1.4-3.2,3.2-3.2h11.4
	C195.6,195,197.1,196.5,197.1,198.2L197.1,198.2z M115.1,195h-11.4c-1.8,0-3.2,1.4-3.2,3.2v71.1c0,1.8,1.4,3.2,3.2,3.2h11.4
	c1.8,0,3.2-1.4,3.2-3.2v-71.1C118.3,196.5,116.9,195,115.1,195L115.1,195z M87.6,254.6H56.5v-56.4c0-1.8-1.4-3.2-3.2-3.2H41.9
	c-1.8,0-3.2,1.4-3.2,3.2v71.1c0,0.9,0.3,1.6,0.9,2.2c0.6,0.5,1.3,0.9,2.2,0.9h45.7c1.8,0,3.2-1.4,3.2-3.2v-11.4
	C90.7,256.1,89.3,254.6,87.6,254.6L87.6,254.6z M257.1,195h-45.7c-1.7,0-3.2,1.4-3.2,3.2v71.1c0,1.7,1.4,3.2,3.2,3.2h45.7
	c1.8,0,3.2-1.4,3.2-3.2v-11.4c0-1.8-1.4-3.2-3.2-3.2H226v-12h31.1c1.8,0,3.2-1.4,3.2-3.2V228c0-1.8-1.4-3.2-3.2-3.2H226v-12h31.1
	c1.8,0,3.2-1.4,3.2-3.2v-11.4C260.2,196.5,258.8,195,257.1,195L257.1,195z M373,107.7V393c-0.1,44.8-36.8,81.1-81.7,81H6
	c-44.8-0.1-81.1-36.9-81-81.7V107c0.1-44.8,36.9-81.1,81.7-81H292C336.8,26.1,373.1,62.8,373,107.7z M311.4,230.3
	c0-73-73.2-132.4-163.1-132.4S-14.8,157.3-14.8,230.3c0,65.4,58,120.2,136.4,130.6c19.1,4.1,16.9,11.1,12.6,36.8
	c-0.7,4.1-3.3,16.1,14.1,8.8c17.4-7.3,93.9-55.3,128.2-94.7C300.1,285.8,311.4,259.5,311.4,230.3z"/>
</svg>
