<?xml version="1.0" encoding="iso-8859-1"?>
<!-- Generator: Adobe Illustrator 19.0.0, SVG Export Plug-In . SVG Version: 6.00 Build 0)  -->
<svg version="1.1" id="&#x30EC;&#x30A4;&#x30E4;&#x30FC;_1"
	 xmlns="http://www.w3.org/2000/svg" xmlns:xlink="http://www.w3.org/1999/xlink" x="0px" y="0px" viewBox="0 0 73.653 76.243"
	 style="enable-background:new 0 0 73.653 76.243;" xml:space="preserve">
<g>
	<path style="fill:#008000;" d="M26.891,2.299c4.251-3.703,7.203-2.355,11,0c3.419,3.979,6.837,7.957,10.438,12.149
		c0.878-0.529,1.869-1.064,2.794-1.695c9.62-6.561,13.08-6.32,21.767,1.546c1.291,1.291,0.698,2.698,0,3
		c-5.444,1.117-10.846,2.815-16.342,3.206c-7.006,0.499-8.586,2.212-6.095,8.698c7.043,18.341-2.25,38.007-20.793,44.02
		c-0.941,0.305-1.847,0.714-2.77,1.075c-4.333,1.895-6.188,3.208-13,0c-5.696-2.304-9.62-6.38-12-12c-1.5-4.042-3.375-6.855,0-13
		c2.242-5.517,4.476-11.037,6.729-16.549c5.008-12.249,13.025-16.726,26.04-14.36c3.018,0.549,5.943,1.609,8.91,2.435
		c0.291-0.33,0.582-0.66,0.873-0.99c-1.232-1.233-2.254-2.948-3.741-3.593c-2.703-1.173-5.643-1.91-8.552-2.474
		C24.589,12.303,23.031,9.03,26.891,2.299z M29.847,61.81c1.232,4.213,3.832,5.034,7.955,4.149c4.21-0.903,4.492-3.797,5.067-6.939
		c0.93-5.077,1.838-10.162,2.946-15.202c0.906-4.12-0.921-5.361-4.726-5.44c-3.249-0.067-4.412,1.606-4.883,4.426
		c-0.626,3.752-1.373,7.484-1.973,10.713c-2.831-2.327-5.191-5.759-7.36-5.643c-2.285,0.123-4.387,3.636-7.087,6.15
		c-0.287-4.117-0.54-8.042-0.839-11.963c-0.317-4.166-3.39-3.226-5.975-3.186c-2.671,0.041-4.647,0.694-4.006,4.059
		c0.903,4.743,1.715,9.503,2.585,14.253c1.671,9.123,2.8,10.034,11.762,8.227C25.407,64.99,27.245,63.29,29.847,61.81z
		 M25.306,25.977c0.01,0.589,0.02,1.178,0.029,1.766c-2.195,0.576-4.507,0.893-6.544,1.818c-1.344,0.611-2.292,2.095-3.417,3.188
		c1.222,1.192,2.355,3.267,3.684,3.402c3.365,0.34,6.819-0.191,10.705-0.398c-0.541-4.471,1.545-9.226-3.262-11.648
		c-3.047-1.535-6.621-1.609-9.875,1.872C19.953,25.977,22.63,25.977,25.306,25.977z M34.807,23.545
		c-0.475,0.022-0.95,0.043-1.425,0.065c0,3.778,0,7.556,0,11.334c0.475-0.004,0.95-0.009,1.425-0.013
		C34.807,31.136,34.807,27.34,34.807,23.545z M38.206,34.746c0.445,0.001,0.89,0.002,1.334,0.003c0-3.666,0-7.332,0-10.998
		c-0.445-0.001-0.89-0.002-1.334-0.003C38.206,27.414,38.206,31.08,38.206,34.746z"/>
	<path style="fill:#008000;" d="M18.86,31.646c2.245-0.487,4.491-0.973,7.214-1.563C24.638,34.996,23.06,35.472,18.86,31.646z"/>
</g>
</svg>
